<svg width="347" height="83" viewBox="0 0 347 83" fill="none" xmlns="http://www.w3.org/2000/svg">
<path fill-rule="evenodd" clip-rule="evenodd" d="M115.393 58.2748C113.86 69.871 99.7277 70.635 91.2659 69.4514C96.5205 68.1006 104.468 66.1409 105.171 59.0636C105.586 54.9295 102.945 50.9101 98.2479 48.0634C95.1915 67.3889 79.7477 82.0944 61.1489 82.0944C49.9002 82.0944 39.8027 76.7095 32.9016 68.1767C54.0506 73.2678 68.8047 63.4026 74.2867 53.0562C79.7881 53.2701 84.3546 48.4941 84.3546 42.4875C84.3546 36.6481 80.0096 31.9116 74.6539 31.9116C69.2966 31.9116 64.9515 36.6481 64.9515 42.4875C64.9515 45.2745 65.942 47.8127 67.559 49.7007C61.3923 57.4722 52.3047 59.5256 42.7438 58.003C26.4181 55.3988 8.70956 42.3544 1.80839 29.4946C-2.61496 21.2502 1.55657 15.8387 9.11804 14.2234C15.0742 12.9534 22.3713 14.1243 26.0813 16.0949C17.3533 14.9709 8.21014 17.0802 10.346 23.9775C11.638 28.1411 17.4249 33.5498 23.7584 36.2817C25.9238 15.8571 41.8392 0 61.1489 0C73.18 0 83.8931 6.15164 90.7842 15.7313C75.7934 13.0893 59.7221 17.5495 49.3199 29.187C48.7766 29.0841 48.2191 29.0318 47.6472 29.0318C42.2907 29.0318 37.9482 33.7638 37.9482 39.605C37.9482 45.45 42.2907 50.1837 47.6472 50.1837C53.0046 50.1837 57.3488 45.45 57.3488 39.605C57.3488 37.7418 56.9066 35.9916 56.1284 34.4718C64.7342 27.1851 78.812 26.1695 90.8701 30.0649C101.117 33.3726 117.225 44.4031 115.393 58.2748ZM74.6539 37.7437C72.2519 37.7437 70.3038 39.8685 70.3038 42.4875C70.3038 45.1083 72.2519 47.2296 74.6539 47.2296C77.0543 47.2296 79.0014 45.1083 79.0014 42.4875C79.0014 39.8685 77.0543 37.7437 74.6539 37.7437ZM47.6472 34.863C45.2444 34.863 43.2988 36.9897 43.2988 39.605C43.2988 42.2258 45.2444 44.3489 47.6472 44.3489C50.0501 44.3489 51.9965 42.2258 51.9965 39.605C51.9965 36.9897 50.0501 34.863 47.6472 34.863Z" fill="#1E1E1E"/>
<path d="M145.719 45.4072C143.847 45.4072 142.119 45.0832 140.535 44.4352C138.951 43.7632 137.571 42.8272 136.395 41.6272C135.243 40.4272 134.343 39.0112 133.695 37.3792C133.047 35.7232 132.723 33.9232 132.723 31.9792C132.723 30.0352 133.035 28.2592 133.659 26.6512C134.307 25.0432 135.207 23.6512 136.359 22.4752C137.535 21.2752 138.915 20.3632 140.499 19.7392C142.083 19.0912 143.823 18.7672 145.719 18.7672C147.855 18.7672 149.775 19.1872 151.479 20.0272C153.207 20.8432 154.611 22.0072 155.691 23.5192C156.795 25.0072 157.467 26.7592 157.707 28.7752H152.307C151.995 26.9272 151.239 25.5352 150.039 24.5992C148.839 23.6392 147.411 23.1592 145.755 23.1592C144.291 23.1592 142.995 23.5072 141.867 24.2032C140.763 24.8992 139.899 25.9072 139.275 27.2272C138.651 28.5232 138.339 30.0952 138.339 31.9432C138.339 33.8152 138.651 35.4352 139.275 36.8032C139.923 38.1472 140.811 39.1912 141.939 39.9352C143.067 40.6552 144.363 41.0152 145.827 41.0152C147.387 41.0152 148.767 40.5472 149.967 39.6112C151.167 38.6752 151.947 37.2832 152.307 35.4352H157.779C157.467 37.4512 156.759 39.2152 155.655 40.7272C154.551 42.2152 153.147 43.3672 151.443 44.1832C149.739 44.9992 147.831 45.4072 145.719 45.4072ZM171.621 45.0472C171.477 44.5192 171.369 43.9552 171.297 43.3552C171.249 42.7552 171.225 42.0592 171.225 41.2672H171.081V32.5912C171.081 31.8472 170.829 31.2712 170.325 30.8632C169.845 30.4312 169.125 30.2152 168.165 30.2152C167.253 30.2152 166.521 30.3712 165.969 30.6832C165.441 30.9952 165.093 31.4512 164.925 32.0512H159.777C160.017 30.3952 160.869 29.0272 162.333 27.9472C163.797 26.8672 165.801 26.3272 168.345 26.3272C170.985 26.3272 173.001 26.9152 174.393 28.0912C175.785 29.2672 176.481 30.9592 176.481 33.1672V41.2672C176.481 41.8672 176.517 42.4792 176.589 43.1032C176.685 43.7032 176.829 44.3512 177.021 45.0472H171.621ZM165.213 45.4072C163.389 45.4072 161.937 44.9512 160.857 44.0392C159.777 43.1032 159.237 41.8672 159.237 40.3312C159.237 38.6272 159.873 37.2592 161.145 36.2272C162.441 35.1712 164.241 34.4872 166.545 34.1752L171.909 33.4192V36.5512L167.445 37.2352C166.485 37.3792 165.777 37.6432 165.321 38.0272C164.865 38.4112 164.637 38.9392 164.637 39.6112C164.637 40.2112 164.853 40.6672 165.285 40.9792C165.717 41.2912 166.293 41.4472 167.013 41.4472C168.141 41.4472 169.101 41.1472 169.893 40.5472C170.685 39.9232 171.081 39.2032 171.081 38.3872L171.585 41.2672C171.057 42.6352 170.253 43.6672 169.173 44.3632C168.093 45.0592 166.773 45.4072 165.213 45.4072ZM180.631 45.0472V26.6872H185.923V31.0072H186.031V45.0472H180.631ZM192.979 45.0472V33.3832C192.979 32.4472 192.727 31.7632 192.223 31.3312C191.743 30.8752 191.059 30.6472 190.171 30.6472C189.403 30.6472 188.695 30.8272 188.047 31.1872C187.423 31.5232 186.931 32.0152 186.571 32.6632C186.211 33.2872 186.031 34.0312 186.031 34.8952L185.563 30.7552C186.163 29.4112 187.027 28.3432 188.155 27.5512C189.307 26.7352 190.687 26.3272 192.295 26.3272C194.215 26.3272 195.703 26.8672 196.759 27.9472C197.839 29.0272 198.379 30.3832 198.379 32.0152V45.0472H192.979ZM205.327 45.0472V33.3832C205.327 32.4472 205.075 31.7632 204.571 31.3312C204.091 30.8752 203.407 30.6472 202.519 30.6472C201.751 30.6472 201.043 30.8272 200.395 31.1872C199.771 31.5232 199.279 32.0152 198.919 32.6632C198.559 33.2872 198.379 34.0312 198.379 34.8952L197.551 30.7552C198.151 29.4112 199.039 28.3432 200.215 27.5512C201.415 26.7352 202.855 26.3272 204.535 26.3272C206.527 26.3272 208.051 26.8912 209.107 28.0192C210.187 29.1232 210.727 30.5752 210.727 32.3752V45.0472H205.327ZM226.034 45.4072C224.282 45.4072 222.878 44.9992 221.822 44.1832C220.766 43.3672 220.142 42.2512 219.95 40.8352L220.238 40.7992V52.4272H214.838V26.6872H220.13V30.7552L219.806 30.6832C220.07 29.3392 220.79 28.2832 221.966 27.5152C223.142 26.7232 224.594 26.3272 226.322 26.3272C227.978 26.3272 229.406 26.7232 230.606 27.5152C231.83 28.2832 232.766 29.3752 233.414 30.7912C234.086 32.2072 234.422 33.8752 234.422 35.7952C234.422 37.7392 234.074 39.4312 233.378 40.8712C232.682 42.3112 231.71 43.4272 230.462 44.2192C229.214 45.0112 227.738 45.4072 226.034 45.4072ZM224.522 41.0872C225.794 41.0872 226.826 40.6312 227.618 39.7192C228.41 38.8072 228.806 37.5112 228.806 35.8312C228.806 34.1512 228.398 32.8672 227.582 31.9792C226.79 31.0912 225.746 30.6472 224.45 30.6472C223.202 30.6472 222.17 31.1032 221.354 32.0152C220.562 32.9032 220.166 34.1872 220.166 35.8672C220.166 37.5472 220.562 38.8432 221.354 39.7552C222.17 40.6432 223.226 41.0872 224.522 41.0872ZM243.384 45.4072C242.088 45.4072 240.972 45.1312 240.036 44.5792C239.124 44.0032 238.428 43.2472 237.948 42.3112C237.468 41.3512 237.228 40.2832 237.228 39.1072V26.6872H242.628V38.0632C242.628 39.0712 242.88 39.8272 243.384 40.3312C243.888 40.8352 244.596 41.0872 245.508 41.0872C246.324 41.0872 247.044 40.8952 247.668 40.5112C248.292 40.1272 248.784 39.5992 249.144 38.9272C249.528 38.2312 249.72 37.4392 249.72 36.5512L250.188 40.9792C249.588 42.2992 248.712 43.3672 247.56 44.1832C246.408 44.9992 245.016 45.4072 243.384 45.4072ZM249.828 45.0472V40.7272H249.72V26.6872H255.12V45.0472H249.828ZM266.622 45.4072C263.934 45.4072 261.798 44.8672 260.214 43.7872C258.63 42.7072 257.766 41.2192 257.622 39.3232H262.446C262.566 40.1392 262.974 40.7632 263.67 41.1952C264.39 41.6032 265.374 41.8072 266.622 41.8072C267.75 41.8072 268.566 41.6512 269.07 41.3392C269.598 41.0032 269.862 40.5352 269.862 39.9352C269.862 39.4792 269.706 39.1312 269.394 38.8912C269.106 38.6272 268.566 38.4112 267.774 38.2432L264.822 37.6312C262.638 37.1752 261.03 36.4912 259.998 35.5792C258.966 34.6432 258.45 33.4432 258.45 31.9792C258.45 30.2032 259.134 28.8232 260.502 27.8392C261.87 26.8312 263.778 26.3272 266.226 26.3272C268.65 26.3272 270.582 26.8192 272.022 27.8032C273.462 28.7632 274.254 30.1072 274.398 31.8352H269.574C269.478 31.2112 269.142 30.7432 268.566 30.4312C267.99 30.0952 267.174 29.9272 266.118 29.9272C265.158 29.9272 264.438 30.0712 263.958 30.3592C263.502 30.6232 263.274 31.0072 263.274 31.5112C263.274 31.9432 263.466 32.2912 263.85 32.5552C264.234 32.7952 264.87 33.0112 265.758 33.2032L269.07 33.8872C270.918 34.2712 272.31 34.9912 273.246 36.0472C274.206 37.0792 274.686 38.3032 274.686 39.7192C274.686 41.5192 273.978 42.9232 272.562 43.9312C271.17 44.9152 269.19 45.4072 266.622 45.4072ZM276.986 45.0472V19.1272H282.53V45.0472H276.986ZM293.762 45.0472V19.1272H299.306V45.0472H293.762ZM279.578 29.4232H296.282V33.6712H279.578V29.4232ZM309.196 45.4072C307.9 45.4072 306.784 45.1312 305.848 44.5792C304.936 44.0032 304.24 43.2472 303.76 42.3112C303.28 41.3512 303.04 40.2832 303.04 39.1072V26.6872H308.44V38.0632C308.44 39.0712 308.692 39.8272 309.196 40.3312C309.7 40.8352 310.408 41.0872 311.32 41.0872C312.136 41.0872 312.856 40.8952 313.48 40.5112C314.104 40.1272 314.596 39.5992 314.956 38.9272C315.34 38.2312 315.532 37.4392 315.532 36.5512L316 40.9792C315.4 42.2992 314.524 43.3672 313.372 44.1832C312.22 44.9992 310.828 45.4072 309.196 45.4072ZM315.64 45.0472V40.7272H315.532V26.6872H320.932V45.0472H315.64ZM336.46 45.4072C334.708 45.4072 333.28 44.9992 332.176 44.1832C331.096 43.3672 330.46 42.2512 330.268 40.8352L330.556 40.7992V45.0472H325.264V19.1272H330.664V30.7552L330.34 30.6832C330.604 29.3392 331.3 28.2832 332.428 27.5152C333.58 26.7232 335.02 26.3272 336.748 26.3272C338.404 26.3272 339.832 26.7232 341.032 27.5152C342.256 28.2832 343.192 29.3752 343.84 30.7912C344.512 32.2072 344.848 33.8752 344.848 35.7952C344.848 37.7392 344.5 39.4312 343.804 40.8712C343.108 42.3112 342.136 43.4272 340.888 44.2192C339.64 45.0112 338.164 45.4072 336.46 45.4072ZM334.948 41.0872C336.22 41.0872 337.252 40.6312 338.044 39.7192C338.836 38.8072 339.232 37.5112 339.232 35.8312C339.232 34.1512 338.824 32.8672 338.008 31.9792C337.216 31.0912 336.172 30.6472 334.876 30.6472C333.628 30.6472 332.596 31.1032 331.78 32.0152C330.988 32.9032 330.592 34.1872 330.592 35.8672C330.592 37.5472 330.988 38.8432 331.78 39.7552C332.596 40.6432 333.652 41.0872 334.948 41.0872Z" fill="black"/>
<path d="M134.123 68.0472L138.188 57.2472H139.568L135.683 68.0472H134.123ZM142.478 68.0472L138.593 57.2472H140.048L144.128 68.0472H142.478ZM136.178 63.7422H141.968V65.0622H136.178V63.7422ZM145.71 68.0472V57.2472H147.27V68.0472H145.71ZM149.46 68.0472V57.2472H151.02V68.0472H149.46ZM159.439 68.0472V63.3372L155.374 57.2472H157.294L160.729 62.6172H159.904L163.339 57.2472H165.094L161.029 63.3372V68.0472H159.439ZM168.303 68.1972C167.523 68.1972 166.838 68.0272 166.248 67.6872C165.658 67.3372 165.198 66.8622 164.868 66.2622C164.538 65.6522 164.373 64.9622 164.373 64.1922C164.373 63.4122 164.538 62.7272 164.868 62.1372C165.208 61.5472 165.668 61.0872 166.248 60.7572C166.838 60.4172 167.523 60.2472 168.303 60.2472C169.093 60.2472 169.783 60.4172 170.373 60.7572C170.963 61.0872 171.418 61.5472 171.738 62.1372C172.068 62.7272 172.233 63.4122 172.233 64.1922C172.233 64.9622 172.068 65.6522 171.738 66.2622C171.418 66.8622 170.963 67.3372 170.373 67.6872C169.783 68.0272 169.093 68.1972 168.303 68.1972ZM168.303 66.9222C168.773 66.9222 169.178 66.8072 169.518 66.5772C169.868 66.3472 170.143 66.0272 170.343 65.6172C170.543 65.2072 170.643 64.7272 170.643 64.1772C170.643 63.3572 170.423 62.7122 169.983 62.2422C169.553 61.7622 168.993 61.5222 168.303 61.5222C167.623 61.5222 167.063 61.7622 166.623 62.2422C166.193 62.7222 165.978 63.3672 165.978 64.1772C165.978 64.7272 166.073 65.2072 166.263 65.6172C166.463 66.0272 166.738 66.3472 167.088 66.5772C167.448 66.8072 167.853 66.9222 168.303 66.9222ZM176.325 68.1972C175.815 68.1972 175.365 68.0922 174.975 67.8822C174.585 67.6622 174.28 67.3622 174.06 66.9822C173.85 66.6022 173.745 66.1672 173.745 65.6772V60.3972H175.305V65.3172C175.305 65.8472 175.435 66.2422 175.695 66.5022C175.955 66.7622 176.325 66.8922 176.805 66.8922C177.235 66.8922 177.615 66.7922 177.945 66.5922C178.285 66.3922 178.55 66.1172 178.74 65.7672C178.94 65.4072 179.04 64.9922 179.04 64.5222L179.235 66.3522C178.985 66.9122 178.6 67.3622 178.08 67.7022C177.57 68.0322 176.985 68.1972 176.325 68.1972ZM179.1 68.0472V66.2472H179.04V60.3972H180.585V68.0472H179.1ZM182.771 68.0472V60.3972H184.256V62.3022H184.331V68.0472H182.771ZM184.331 64.0572L184.136 62.2422C184.316 61.5922 184.626 61.0972 185.066 60.7572C185.506 60.4172 186.031 60.2472 186.641 60.2472C186.871 60.2472 187.031 60.2672 187.121 60.3072V61.7772C187.071 61.7572 187.001 61.7472 186.911 61.7472C186.821 61.7372 186.711 61.7322 186.581 61.7322C185.831 61.7322 185.266 61.9272 184.886 62.3172C184.516 62.7072 184.331 63.2872 184.331 64.0572ZM196.242 68.1972C195.492 68.1972 194.797 68.0622 194.157 67.7922C193.517 67.5122 192.962 67.1272 192.492 66.6372C192.032 66.1372 191.672 65.5472 191.412 64.8672C191.152 64.1872 191.022 63.4422 191.022 62.6322C191.022 61.8222 191.147 61.0822 191.397 60.4122C191.657 59.7322 192.017 59.1472 192.477 58.6572C192.947 58.1572 193.502 57.7722 194.142 57.5022C194.782 57.2322 195.477 57.0972 196.227 57.0972C197.067 57.0972 197.822 57.2672 198.492 57.6072C199.162 57.9372 199.707 58.4072 200.127 59.0172C200.557 59.6272 200.822 60.3372 200.922 61.1472H199.362C199.232 60.2972 198.887 59.6372 198.327 59.1672C197.777 58.6872 197.082 58.4472 196.242 58.4472C195.532 58.4472 194.902 58.6222 194.352 58.9722C193.812 59.3122 193.392 59.7972 193.092 60.4272C192.792 61.0472 192.642 61.7822 192.642 62.6322C192.642 63.4722 192.792 64.2122 193.092 64.8522C193.402 65.4822 193.827 65.9722 194.367 66.3222C194.907 66.6722 195.532 66.8472 196.242 66.8472C197.082 66.8472 197.782 66.6122 198.342 66.1422C198.912 65.6622 199.257 64.9972 199.377 64.1472H200.952C200.842 64.9672 200.572 65.6822 200.142 66.2922C199.712 66.8922 199.162 67.3622 198.492 67.7022C197.832 68.0322 197.082 68.1972 196.242 68.1972ZM207.139 68.0472C207.089 67.8572 207.054 67.6472 207.034 67.4172C207.024 67.1872 207.019 66.9072 207.019 66.5772H206.944V62.9322C206.944 62.4422 206.819 62.0772 206.569 61.8372C206.329 61.5872 205.944 61.4622 205.414 61.4622C204.904 61.4622 204.494 61.5622 204.184 61.7622C203.884 61.9622 203.709 62.2472 203.659 62.6172H202.174C202.244 61.8972 202.569 61.3222 203.149 60.8922C203.729 60.4622 204.504 60.2472 205.474 60.2472C206.474 60.2472 207.224 60.4822 207.724 60.9522C208.224 61.4122 208.474 62.0922 208.474 62.9922V66.5772C208.474 66.8072 208.489 67.0422 208.519 67.2822C208.549 67.5222 208.594 67.7772 208.654 68.0472H207.139ZM204.499 68.1972C203.719 68.1972 203.099 68.0072 202.639 67.6272C202.179 67.2372 201.949 66.7122 201.949 66.0522C201.949 65.3722 202.189 64.8372 202.669 64.4472C203.159 64.0472 203.859 63.7772 204.769 63.6372L207.289 63.2322V64.3272L205.009 64.6872C204.499 64.7672 204.114 64.9022 203.854 65.0922C203.604 65.2822 203.479 65.5572 203.479 65.9172C203.479 66.2672 203.594 66.5322 203.824 66.7122C204.064 66.8822 204.409 66.9672 204.859 66.9672C205.459 66.9672 205.954 66.8222 206.344 66.5322C206.744 66.2422 206.944 65.8772 206.944 65.4372L207.139 66.5472C206.959 67.0772 206.639 67.4872 206.179 67.7772C205.719 68.0572 205.159 68.1972 204.499 68.1972ZM210.588 68.0472V60.3972H212.073V62.1972H212.148V68.0472H210.588ZM215.748 68.0472V63.0522C215.748 62.5322 215.628 62.1522 215.388 61.9122C215.148 61.6722 214.803 61.5522 214.353 61.5522C213.933 61.5522 213.553 61.6522 213.213 61.8522C212.883 62.0422 212.623 62.3122 212.433 62.6622C212.243 63.0022 212.148 63.4072 212.148 63.8772L211.953 62.0922C212.203 61.5222 212.578 61.0722 213.078 60.7422C213.588 60.4122 214.158 60.2472 214.788 60.2472C215.548 60.2472 216.153 60.4672 216.603 60.9072C217.063 61.3472 217.293 61.9272 217.293 62.6472V68.0472H215.748ZM220.908 68.0472V63.0522C220.908 62.5322 220.783 62.1522 220.533 61.9122C220.293 61.6722 219.948 61.5522 219.498 61.5522C219.088 61.5522 218.713 61.6522 218.373 61.8522C218.043 62.0422 217.778 62.3122 217.578 62.6622C217.388 63.0022 217.293 63.4072 217.293 63.8772L216.978 62.0922C217.238 61.5222 217.628 61.0722 218.148 60.7422C218.678 60.4122 219.268 60.2472 219.918 60.2472C220.688 60.2472 221.303 60.4722 221.763 60.9222C222.223 61.3622 222.453 61.9522 222.453 62.6922V68.0472H220.908ZM228.628 68.1822C227.908 68.1822 227.308 68.0122 226.828 67.6722C226.358 67.3222 226.048 66.8372 225.898 66.2172L226.108 66.1872V71.1222H224.548V60.3972H226.033V62.1522L225.883 62.1072C226.043 61.5272 226.383 61.0722 226.903 60.7422C227.423 60.4122 228.033 60.2472 228.733 60.2472C229.423 60.2472 230.018 60.4122 230.518 60.7422C231.028 61.0722 231.418 61.5322 231.688 62.1222C231.968 62.7122 232.108 63.4022 232.108 64.1922C232.108 64.9922 231.963 65.6922 231.673 66.2922C231.383 66.8922 230.978 67.3572 230.458 67.6872C229.938 68.0172 229.328 68.1822 228.628 68.1822ZM228.298 66.8922C228.978 66.8922 229.518 66.6522 229.918 66.1722C230.318 65.6922 230.518 65.0322 230.518 64.1922C230.518 63.3622 230.318 62.7172 229.918 62.2572C229.518 61.7872 228.973 61.5522 228.283 61.5522C227.603 61.5522 227.058 61.7922 226.648 62.2722C226.248 62.7422 226.048 63.3972 226.048 64.2372C226.048 65.0572 226.248 65.7072 226.648 66.1872C227.058 66.6572 227.608 66.8922 228.298 66.8922ZM236.237 68.1972C235.727 68.1972 235.277 68.0922 234.887 67.8822C234.497 67.6622 234.192 67.3622 233.972 66.9822C233.762 66.6022 233.657 66.1672 233.657 65.6772V60.3972H235.217V65.3172C235.217 65.8472 235.347 66.2422 235.607 66.5022C235.867 66.7622 236.237 66.8922 236.717 66.8922C237.147 66.8922 237.527 66.7922 237.857 66.5922C238.197 66.3922 238.462 66.1172 238.652 65.7672C238.852 65.4072 238.952 64.9922 238.952 64.5222L239.147 66.3522C238.897 66.9122 238.512 67.3622 237.992 67.7022C237.482 68.0322 236.897 68.1972 236.237 68.1972ZM239.012 68.0472V66.2472H238.952V60.3972H240.497V68.0472H239.012ZM245.384 68.1972C244.384 68.1972 243.589 67.9772 242.999 67.5372C242.409 67.0972 242.074 66.4772 241.994 65.6772H243.434C243.504 66.1172 243.704 66.4572 244.034 66.6972C244.374 66.9272 244.834 67.0422 245.414 67.0422C245.924 67.0422 246.314 66.9522 246.584 66.7722C246.854 66.5922 246.989 66.3372 246.989 66.0072C246.989 65.7672 246.909 65.5672 246.749 65.4072C246.599 65.2372 246.299 65.0972 245.849 64.9872L244.619 64.7022C243.849 64.5122 243.274 64.2322 242.894 63.8622C242.524 63.4822 242.339 63.0172 242.339 62.4672C242.339 61.7772 242.594 61.2372 243.104 60.8472C243.624 60.4472 244.334 60.2472 245.234 60.2472C246.124 60.2472 246.839 60.4472 247.379 60.8472C247.929 61.2472 248.239 61.8072 248.309 62.5272H246.869C246.809 62.1672 246.634 61.8922 246.344 61.7022C246.064 61.5022 245.679 61.4022 245.189 61.4022C244.729 61.4022 244.374 61.4872 244.124 61.6572C243.884 61.8172 243.764 62.0422 243.764 62.3322C243.764 62.5722 243.854 62.7722 244.034 62.9322C244.224 63.0922 244.534 63.2272 244.964 63.3372L246.224 63.6522C246.954 63.8322 247.504 64.1272 247.874 64.5372C248.244 64.9372 248.429 65.4222 248.429 65.9922C248.429 66.6822 248.159 67.2222 247.619 67.6122C247.089 68.0022 246.344 68.1972 245.384 68.1972ZM252.849 68.0472V57.2472H254.694L260.424 66.4872L260.064 66.5622V57.2472H261.594V68.0472H259.749L254.019 58.8072L254.379 58.7322V68.0472H252.849ZM267.106 68.1972C266.336 68.1972 265.656 68.0272 265.066 67.6872C264.486 67.3472 264.031 66.8772 263.701 66.2772C263.371 65.6772 263.206 64.9872 263.206 64.2072C263.206 63.4172 263.366 62.7272 263.686 62.1372C264.016 61.5372 264.476 61.0722 265.066 60.7422C265.656 60.4122 266.331 60.2472 267.091 60.2472C267.831 60.2472 268.471 60.4072 269.011 60.7272C269.561 61.0372 269.981 61.4722 270.271 62.0322C270.571 62.5922 270.721 63.2572 270.721 64.0272C270.721 64.1472 270.716 64.2622 270.706 64.3722C270.706 64.4722 270.696 64.5772 270.676 64.6872H264.256V63.5172H269.581L269.191 63.9822C269.191 63.1622 269.006 62.5372 268.636 62.1072C268.266 61.6772 267.751 61.4622 267.091 61.4622C266.381 61.4622 265.816 61.7072 265.396 62.1972C264.986 62.6772 264.781 63.3472 264.781 64.2072C264.781 65.0772 264.986 65.7572 265.396 66.2472C265.816 66.7372 266.396 66.9822 267.136 66.9822C267.586 66.9822 267.976 66.8922 268.306 66.7122C268.636 66.5222 268.881 66.2472 269.041 65.8872H270.511C270.261 66.6072 269.836 67.1722 269.236 67.5822C268.646 67.9922 267.936 68.1972 267.106 68.1972ZM275.66 68.1972C274.89 68.1972 274.21 68.0272 273.62 67.6872C273.04 67.3472 272.585 66.8772 272.255 66.2772C271.925 65.6772 271.76 64.9872 271.76 64.2072C271.76 63.4172 271.92 62.7272 272.24 62.1372C272.57 61.5372 273.03 61.0722 273.62 60.7422C274.21 60.4122 274.885 60.2472 275.645 60.2472C276.385 60.2472 277.025 60.4072 277.565 60.7272C278.115 61.0372 278.535 61.4722 278.825 62.0322C279.125 62.5922 279.275 63.2572 279.275 64.0272C279.275 64.1472 279.27 64.2622 279.26 64.3722C279.26 64.4722 279.25 64.5772 279.23 64.6872H272.81V63.5172H278.135L277.745 63.9822C277.745 63.1622 277.56 62.5372 277.19 62.1072C276.82 61.6772 276.305 61.4622 275.645 61.4622C274.935 61.4622 274.37 61.7072 273.95 62.1972C273.54 62.6772 273.335 63.3472 273.335 64.2072C273.335 65.0772 273.54 65.7572 273.95 66.2472C274.37 66.7372 274.95 66.9822 275.69 66.9822C276.14 66.9822 276.53 66.8922 276.86 66.7122C277.19 66.5222 277.435 66.2472 277.595 65.8872H279.065C278.815 66.6072 278.39 67.1722 277.79 67.5822C277.2 67.9922 276.49 68.1972 275.66 68.1972ZM286.435 68.0472V66.2922L286.585 66.3372C286.425 66.9072 286.095 67.3622 285.595 67.7022C285.095 68.0322 284.495 68.1972 283.795 68.1972C283.105 68.1972 282.5 68.0322 281.98 67.7022C281.47 67.3722 281.07 66.9122 280.78 66.3222C280.5 65.7322 280.36 65.0422 280.36 64.2522C280.36 63.4522 280.505 62.7522 280.795 62.1522C281.085 61.5522 281.49 61.0872 282.01 60.7572C282.53 60.4272 283.14 60.2622 283.84 60.2622C284.57 60.2622 285.17 60.4372 285.64 60.7872C286.12 61.1272 286.435 61.6072 286.585 62.2272L286.375 62.2572V57.2472H287.92V68.0472H286.435ZM284.185 66.8922C284.875 66.8922 285.42 66.6572 285.82 66.1872C286.22 65.7072 286.42 65.0472 286.42 64.2072C286.42 63.3872 286.215 62.7422 285.805 62.2722C285.405 61.7922 284.86 61.5522 284.17 61.5522C283.49 61.5522 282.95 61.7922 282.55 62.2722C282.16 62.7422 281.965 63.4022 281.965 64.2522C281.965 65.0822 282.16 65.7322 282.55 66.2022C282.95 66.6622 283.495 66.8922 284.185 66.8922ZM292.874 68.1972C291.874 68.1972 291.079 67.9772 290.489 67.5372C289.899 67.0972 289.564 66.4772 289.484 65.6772H290.924C290.994 66.1172 291.194 66.4572 291.524 66.6972C291.864 66.9272 292.324 67.0422 292.904 67.0422C293.414 67.0422 293.804 66.9522 294.074 66.7722C294.344 66.5922 294.479 66.3372 294.479 66.0072C294.479 65.7672 294.399 65.5672 294.239 65.4072C294.089 65.2372 293.789 65.0972 293.339 64.9872L292.109 64.7022C291.339 64.5122 290.764 64.2322 290.384 63.8622C290.014 63.4822 289.829 63.0172 289.829 62.4672C289.829 61.7772 290.084 61.2372 290.594 60.8472C291.114 60.4472 291.824 60.2472 292.724 60.2472C293.614 60.2472 294.329 60.4472 294.869 60.8472C295.419 61.2472 295.729 61.8072 295.799 62.5272H294.359C294.299 62.1672 294.124 61.8922 293.834 61.7022C293.554 61.5022 293.169 61.4022 292.679 61.4022C292.219 61.4022 291.864 61.4872 291.614 61.6572C291.374 61.8172 291.254 62.0422 291.254 62.3322C291.254 62.5722 291.344 62.7722 291.524 62.9322C291.714 63.0922 292.024 63.2272 292.454 63.3372L293.714 63.6522C294.444 63.8322 294.994 64.1272 295.364 64.5372C295.734 64.9372 295.919 65.4222 295.919 65.9922C295.919 66.6822 295.649 67.2222 295.109 67.6122C294.579 68.0022 293.834 68.1972 292.874 68.1972Z" fill="black"/>
</svg>
